HIERARCHY
ROOT Hips
{
    OFFSET 0.000000 0.000000 0.000000
    CHANNELS 6 Xposition Yposition Zposition Zrotation Xrotation Yrotation
    JOINT Spine
    {
        OFFSET -0.000000 6.925600 0.000000
        CHANNELS 3 Zrotation Xrotation Yrotation
        JOINT Spine1
        {
            OFFSET -0.000000 16.343796 0.000000
            CHANNELS 3 Zrotation Xrotation Yrotation
            JOINT Neck
            {
                OFFSET -0.000000 18.032967 0.000000
                CHANNELS 3 Zrotation Xrotation Yrotation
                JOINT Head
                {
                    OFFSET -0.000000 13.091072 1.689171
                    CHANNELS 3 Zrotation Xrotation Yrotation
                    End Site
                    {
                        OFFSET -0.000000 16.891708 0.000000
                    }
                }
            }
            JOINT LeftShoulder
            {
                OFFSET 3.336773 14.146137 -0.012206
                CHANNELS 3 Zrotation Xrotation Yrotation
                JOINT LeftArm
                {
                    OFFSET 11.765518 0.000000 0.000000
                    CHANNELS 3 Zrotation Xrotation Yrotation
                    JOINT LeftForeArm
                    {
                        OFFSET 25.163450 0.000000 0.000000
                        CHANNELS 3 Zrotation Xrotation Yrotation
                        JOINT LeftHand
                        {
                            OFFSET 21.783554 0.000000 0.000000
                            CHANNELS 3 Zrotation Xrotation Yrotation
                            End Site
                            {
                                OFFSET 12.668781 0.000000 0.000000
                            }
                        }
                    }
                }
            }
            JOINT RightShoulder
            {
                OFFSET -3.409204 14.146137 -0.012206
                CHANNELS 3 Zrotation Xrotation Yrotation
                JOINT RightArm
                {
                    OFFSET -11.765518 0.000000 0.000000
                    CHANNELS 3 Zrotation Xrotation Yrotation
                    JOINT RightForeArm
                    {
                        OFFSET -25.163450 0.000000 0.000000
                        CHANNELS 3 Zrotation Xrotation Yrotation
                        JOINT RightHand
                        {
                            OFFSET -21.783554 0.000000 0.000000
                            CHANNELS 3 Zrotation Xrotation Yrotation
                            End Site
                            {
                                OFFSET -12.668781 0.000000 0.000000
                            }
                        }
                    }
                }
            }
        }
    }
    JOINT LeftUpLeg
    {
        OFFSET 8.445854 0.000000 0.000000
        CHANNELS 3 Zrotation Xrotation Yrotation
        JOINT LeftLeg
        {
            OFFSET -0.000000 -40.674755 0.000000
            CHANNELS 3 Zrotation Xrotation Yrotation
            JOINT LeftFoot
            {
                OFFSET -0.000000 -37.111794 0.000000
                CHANNELS 3 Zrotation Xrotation Yrotation
                JOINT LeftToeBase
                {
                    OFFSET -0.000000 -5.489805 12.668781
                    CHANNELS 3 Zrotation Xrotation Yrotation
                    End Site
                    {
                        OFFSET -0.000000 0.000000 3.378341
                    }
                }
            }
        }
    }
    JOINT RightUpLeg
    {
        OFFSET -8.445854 0.000000 0.000000
        CHANNELS 3 Zrotation Xrotation Yrotation
        JOINT RightLeg
        {
            OFFSET -0.000000 -40.674755 0.000000
            CHANNELS 3 Zrotation Xrotation Yrotation
            JOINT RightFoot
            {
                OFFSET -0.000000 -37.111794 0.000000
                CHANNELS 3 Zrotation Xrotation Yrotation
                JOINT RightToeBase
                {
                    OFFSET -0.000000 -5.489805 12.668781
                    CHANNELS 3 Zrotation Xrotation Yrotation
                    End Site
                    {
                        OFFSET -0.000000 0.000000 3.378341
                    }
                }
            }
        }
    }
}
MOTION
Frames:    10
Frame Time:    0.008333
7.380675    64.455910    108.405327    10.460848    5.747379    128.902161    4.233838    33.623070    9.105471    2.109650    15.364564    3.198197    -6.750562    16.129906    14.666099    -0.376858    0.883667    13.344255    6.944630    6.424379    7.186134    -45.284393    36.622490    -2.160325    22.933809    -14.948121    -95.463699    44.897400    5.994326    -11.780306    -11.770956    0.246063    4.024130    32.278198    9.351462    48.991352    -31.761608    -12.009314    75.863747    -15.776777    17.246859    -0.879614    13.390768    -47.309132    4.742457    -52.173927    58.730160    53.769009    14.555674    -7.067448    35.463058    -3.503345    -3.556328    2.400512    -3.840805    -47.151817    2.346156    -3.387157    64.048080    11.509002    22.370077    -9.425078    1.992758    -6.181178    7.353507    4.871641    
7.198291    64.072144    108.550873    10.864902    6.130490    129.161789    4.201728    33.916756    8.952669    2.259585    14.824367    3.138355    -6.924716    15.770200    14.762306    0.015259    1.489539    13.364730    7.008389    6.458277    7.532282    -44.518051    36.456654    -2.597470    22.433058    -15.124664    -96.556198    43.547020    6.303351    -10.729111    -11.815694    0.362006    4.227950    32.403164    9.120002    49.005348    -43.787868    -8.643461    72.800407    -14.559549    4.588126    -3.265826    13.569159    -47.579029    4.839406    -53.873718    59.523914    54.966160    13.267418    -7.084300    34.977551    -3.450942    -3.262464    2.945580    -4.025445    -47.397202    2.127900    -3.591561    64.937080    11.097265    22.747364    -9.202902    2.048246    -6.372829    7.455853    5.183071    
7.017268    63.687008    108.704948    11.304646    6.534107    129.432404    4.291516    33.982044    8.955652    2.402189    14.734770    3.132609    -6.833883    16.061920    14.583196    -0.210118    0.914461    13.217566    7.000930    6.310083    7.358047    -43.758961    36.082489    -3.068953    22.053627    -15.434410    -97.338554    42.211590    6.112974    -10.512124    -11.786294    0.393320    4.265879    32.498489    8.760280    48.886387    -45.885677    -7.859687    71.762016    -13.439652    1.107793    -3.035708    13.670429    -47.643925    4.838945    -55.263420    60.257553    56.155376    13.161891    -7.552282    33.480125    -3.204220    -2.391469    4.208005    -4.098120    -47.563297    2.074391    -3.635395    65.574753    6.900543    22.373064    -6.830363    5.483643    -5.172340    5.772860    4.788144    
6.873189    63.353973    108.823685    11.660943    7.074862    129.617081    4.377238    34.079815    8.890561    2.109477    14.701810    3.159000    -6.730636    15.514693    14.534807    0.170812    1.478973    13.176130    6.686257    6.785202    7.399063    -42.001575    35.188103    -4.165803    21.578697    -15.817715    -98.377655    40.780071    6.023407    -9.808993    -11.621643    0.325095    4.234760    32.670544    8.921418    49.114407    -33.408878    -13.078709    71.340683    -9.112891    11.301574    6.360434    13.555142    -47.675461    4.779365    -56.259354    60.583858    57.149597    13.874259    -7.592822    33.165272    -2.744968    -2.019993    3.612433    -3.858838    -47.280125    2.512791    -5.123789    65.522545    -2.920927    23.738901    -1.903555    14.972776    -5.012957    5.647704    4.579567    
6.679764    63.023846    108.862602    11.910565    7.695704    129.606888    4.125833    34.046745    9.335220    2.272237    14.734596    3.256168    -6.718959    15.464015    14.251704    0.211222    1.458434    12.884392    6.868251    6.289803    6.855320    -41.880085    34.998173    -4.270127    21.255001    -16.047909    -99.010262    39.343979    6.007118    -9.261441    -11.623315    0.339794    3.829048    32.593983    8.715378    49.165730    -33.406998    -12.704869    70.363487    -9.484728    11.174937    6.691124    13.528158    -47.657024    4.764786    -57.807037    60.733517    58.428436    13.517148    -7.633273    32.909824    -2.282865    -1.338241    3.717294    -4.019362    -47.421959    2.934566    -5.260752    66.375114    -0.888784    23.826971    -2.644907    12.875594    -4.985584    5.624306    4.546568    
6.515275    62.677509    109.000381    12.339771    8.073759    129.852219    4.235974    34.005352    9.335953    2.418766    14.718184    3.250756    -6.674874    15.827356    14.076930    -0.082510    0.812590    12.735142    6.918381    5.885607    6.595592    -41.518398    34.729431    -4.437770    21.146656    -16.402781    -99.707817    37.637814    6.414400    -7.992303    -11.609496    0.427482    3.954133    32.581818    8.320274    49.060291    -33.368816    -12.402753    69.551483    -9.632547    11.048286    6.928468    13.676434    -47.814796    4.868496    -59.081264    61.236416    59.298019    13.205883    -7.730621    32.747459    -2.325404    -1.362377    3.793428    -4.672212    -47.728310    2.553600    -4.076017    67.979630    10.070107    22.534101    -7.538580    2.171649    -4.805607    5.505251    4.273414    
6.381273    62.359344    109.104851    12.770426    8.538648    129.968246    4.204144    33.983303    9.432647    2.479701    14.798809    3.270206    -6.692108    15.260010    14.018525    0.214050    1.477519    12.662328    6.949624    5.625208    6.467608    -41.029350    34.288879    -4.881891    20.830292    -16.586376    -100.331268    36.188770    6.427051    -7.359513    -11.433199    0.399546    3.971037    32.484562    8.014598    49.065948    -33.289658    -12.108976    68.740051    -9.641523    10.901787    7.082695    13.792288    -47.817104    4.953385    -60.256947    61.669682    60.455971    12.876159    -7.856940    32.268902    -1.874498    -0.769472    3.728117    -4.126954    -47.386715    3.573760    -4.698246    67.670517    -3.865788    24.014547    -1.304278    14.439317    -4.719214    5.310642    4.359156    
6.262713    62.094814    109.130463    13.189533    9.099705    129.946411    4.061210    33.866341    9.631351    2.553625    15.035404    3.298697    -6.594261    15.082660    13.889961    0.107028    1.580787    12.580677    7.005200    5.438323    6.358146    -40.562035    33.918808    -5.486549    20.464954    -16.710939    -100.809654    34.292286    6.398769    -6.648123    -11.306690    0.366716    4.017292    32.231056    7.752052    48.995697    -33.471672    -11.508424    67.675140    -10.842573    11.077265    7.231561    14.029418    -47.582474    5.117464    -61.738861    61.943455    61.526699    11.568511    -8.309891    31.926125    -1.811170    -0.383926    4.361696    -4.400647    -47.339981    1.999818    -8.665695    68.262024    1.279460    24.096277    -1.411283    13.705026    -4.615888    5.195644    4.275051    
6.059658    61.735630    109.349403    13.573136    9.391150    130.554321    4.353520    33.968231    9.312068    2.697905    14.744449    3.211085    -6.590815    14.921176    13.789205    0.078289    1.718961    12.490685    6.983883    5.250969    6.241298    -40.056988    33.526466    -6.056258    20.200735    -16.858753    -101.192802    32.625431    6.315716    -6.190894    -11.266401    0.393553    4.092804    32.272728    7.485096    48.960175    -33.323338    -11.272583    66.829010    -10.731735    10.818064    7.426164    13.849641    -47.984070    4.993305    -62.201199    62.474483    61.621479    12.202972    -8.353128    32.174377    -1.438094    -0.094147    3.875891    -4.514480    -47.454716    1.239875    -10.775580    68.740509    2.723405    24.566011    -1.135731    13.683515    -4.705776    5.238789    4.438794    
5.840559    61.457928    109.459099    13.846517    9.762836    130.721527    4.412015    33.871269    9.347189    2.794008    14.747881    3.214455    -6.441420    15.391624    13.519503    -0.632696    0.688913    12.320375    6.864232    5.007180    6.127349    -39.536678    33.143047    -6.777170    19.990751    -17.067038    -101.544235    32.117531    6.216891    -5.486500    -11.007962    0.840199    4.077415    31.894316    6.717956    49.307209    -33.102596    -10.982310    65.917961    -10.477023    10.552619    7.599361    14.050602    -48.131542    5.120763    -63.360294    62.776516    62.385254    10.953108    -8.681734    31.980093    -1.958970    -0.660902    4.212463    -4.590497    -47.575241    1.144918    -12.080808    69.201912    3.914715    24.847067    -0.711868    13.553391    -4.581215    5.179168    4.211446    
